<?xml version="1.0" standalone="no"?>
<!DOCTYPE svg PUBLIC "-//W3C//DTD SVG 20010904//EN"
 "http://www.w3.org/TR/2001/REC-SVG-20010904/DTD/svg10.dtd">
<svg version="1.0" xmlns="http://www.w3.org/2000/svg"
 width="500.000000pt" height="500.000000pt" viewBox="0 0 500.000000 500.000000"
 preserveAspectRatio="xMidYMid meet">

<g transform="translate(0.000000,500.000000) scale(0.100000,-0.100000)"
fill="#000000" stroke="none">
<path d="M2347 4189 c-334 -29 -632 -150 -902 -365 -583 -464 -791 -1262 -513
-1964 267 -672 910 -1091 1638 -1067 261 9 451 57 685 173 619 307 996 978
936 1667 -37 425 -197 776 -485 1062 -295 294 -648 458 -1067 495 -126 11
-163 11 -292 -1z m478 -582 c218 -66 332 -163 391 -332 22 -61 25 -234 5 -286
-59 -155 -153 -251 -304 -309 l-68 -27 59 -12 c123 -24 233 -82 312 -163 64
-65 93 -110 127 -198 113 -289 -29 -623 -322 -757 -164 -75 -244 -83 -857 -83
l-498 0 0 44 c0 38 3 45 28 55 15 6 44 27 65 46 l38 35 293 0 c291 0 292 0
324 -24 99 -73 381 -49 518 45 227 155 273 551 88 767 -46 54 -103 93 -179
122 -55 22 -79 24 -307 28 l-248 4 0 -416 0 -416 -25 0 c-14 0 -34 9 -45 20
-20 20 -20 33 -20 655 l0 635 45 0 45 0 0 -181 0 -180 213 3 c211 3 212 3 271
32 147 72 226 209 226 391 0 152 -51 271 -144 335 -86 58 -106 60 -706 60
-418 0 -551 3 -570 13 -21 11 -25 21 -28 65 l-3 53 613 -4 c513 -4 621 -7 663
-20z m-315 -219 c-1 -27 -17 -50 -47 -66 -15 -9 -125 -12 -375 -12 -319 0
-355 2 -374 18 -27 21 -47 59 -39 72 4 6 161 10 421 10 l414 0 0 -22z m-25
-201 c42 -41 45 -47 45 -96 0 -28 -7 -65 -15 -81 -17 -33 -80 -70 -120 -70
-21 0 -25 5 -25 28 0 20 8 32 30 44 24 14 30 24 30 52 0 67 4 66 -347 66 -280
0 -319 -2 -335 -17 -10 -9 -18 -27 -18 -41 0 -28 35 -72 57 -72 8 0 13 -12 13
-30 0 -27 -3 -30 -34 -30 -67 0 -137 75 -136 145 1 44 30 96 69 122 34 23 36
23 387 23 l354 0 45 -43z m-525 -792 l0 -645 -24 -12 c-59 -26 -56 -59 -56
652 l0 650 40 0 40 0 0 -645z m160 -6 l0 -650 -37 3 -38 3 -3 625 c-1 344 0
635 3 648 4 17 12 22 40 22 l35 0 0 -651z"/>
</g>
</svg>
